<svg width="24" height="24" viewBox="0 0 24 24" fill="none" xmlns="http://www.w3.org/2000/svg">
<g clip-path="url(#clip0_205_406)">
<path d="M8.85093 17.7C10.6083 19.4574 13.4575 19.4574 15.2149 17.7L15.215 17.7L18.427 14.488C19.0229 13.9125 19.0394 12.9629 18.4638 12.367C17.8883 11.7711 16.9387 11.7546 16.3428 12.3301C16.3303 12.3422 16.318 12.3545 16.306 12.367L13.523 15.149L13.4999 1.5C13.4999 0.671578 12.8284 0 11.9999 0C11.1715 0 10.4999 0.671578 10.4999 1.5L10.5209 15.127L7.75996 12.366C7.16409 11.7905 6.21449 11.807 5.63896 12.4028C5.07754 12.9841 5.07754 13.9057 5.63896 14.487L8.85093 17.7Z" fill="#FDFDFD"/>
<path d="M22.5 14.5C21.6716 14.5 21 15.1716 21 16V20.591C20.9994 20.8166 20.8167 20.9995 20.591 21H3.40898C3.18333 20.9994 3.00052 20.8166 3 20.591V16C3 15.1716 2.32842 14.5 1.5 14.5C0.671578 14.5 0 15.1716 0 16V20.591C0.00220313 22.4728 1.52719 23.9978 3.40898 24H20.591C22.4728 23.9978 23.9978 22.4728 24 20.591V16C24 15.1716 23.3284 14.5 22.5 14.5Z" fill="#FDFDFD"/>
</g>
<defs>
<clipPath id="clip0_205_406">
<rect width="24" height="24" fill="white"/>
</clipPath>
</defs>
</svg>
